{
  "accessors": [
    {
      "bufferView": 2,
      "componentType": 5126,
      "count": 60887,
      "max": [
        53.671962738037109,
        6.9082350730895996,
        28.449005126953125
      ],
      "min": [
        -74.674072265625,
        -170.30419921875,
        -74.320182800292969
      ],
      "type": "VEC3"
    },
    {
      "bufferView": 2,
      "byteOffset": 730644,
      "componentType": 5126,
      "count": 60887,
      "max": [
        0.99999374151229858,
        0.99978440999984741,
        0.99999600648880005
      ],
      "min": [
        -0.99983668327331543,
        -0.99987071752548218,
        -0.99999886751174927
      ],
      "type": "VEC3"
    },
    {
      "bufferView": 1,
      "componentType": 5126,
      "count": 60887,
      "max": [
        0.98040199279785156,
        0.98631501197814941
      ],
      "min": [
        0.013685000129044056,
        0.0035810000263154507
      ],
      "type": "VEC2"
    },
    {
      "bufferView": 0,
      "componentType": 5125,
      "count": 351948,
      "max": [
        60886
      ],
      "min": [
        0
      ],
      "type": "SCALAR"
    }
  ],
  "asset": {
    "extras": {
      "author": "edditive (https://sketchfab.com/edditive)",
      "license": "CC-BY-NC-SA-4.0 (http://creativecommons.org/licenses/by-nc-sa/4.0/)",
      "source": "https://sketchfab.com/3d-models/elephant-stuffed-toy-ecf88e60d742411d8b060fb46bbaca23",
      "title": "Elephant Stuffed Toy"
    },
    "generator": "Sketchfab-9.19.0",
    "version": "2.0"
  },
  "bufferViews": [
    {
      "buffer": 0,
      "byteLength": 1407792,
      "byteOffset": 0,
      "name": "floatBufferViews",
      "target": 34963
    },
    {
      "buffer": 0,
      "byteLength": 487096,
      "byteOffset": 1407792,
      "byteStride": 8,
      "name": "floatBufferViews",
      "target": 34962
    },
    {
      "buffer": 0,
      "byteLength": 1461288,
      "byteOffset": 1894888,
      "byteStride": 12,
      "name": "floatBufferViews",
      "target": 34962
    }
  ],
  "buffers": [
    {
      "byteLength": 3356176,
      "uri": "scene.bin"
    }
  ],
  "images": [
    {
      "uri": "textures/material_0_baseColor.jpeg"
    }
  ],
  "materials": [
    {
      "doubleSided": true,
      "emissiveFactor": [
        0,
        0,
        0
      ],
      "name": "material_0",
      "pbrMetallicRoughness": {
        "baseColorFactor": [
          0.85901446473195564,
          0.85901446473195564,
          0.85901446473195564,
          1
        ],
        "baseColorTexture": {
          "index": 0,
          "texCoord": 0
        },
        "metallicFactor": 0,
        "roughnessFactor": 0.77997221360864355
      }
    }
  ],
  "meshes": [
    {
      "primitives": [
        {
          "attributes": {
            "NORMAL": 1,
            "POSITION": 0,
            "TEXCOORD_0": 2
          },
          "indices": 3,
          "material": 0,
          "mode": 4
        }
      ]
    }
  ],
  "nodes": [
    {
      "children": [
        1
      ],
      "name": "RootNode (gltf orientation matrix)",
      "rotation": [
        -0.70710678118654746,
        -0,
        -0,
        0.70710678118654757
      ]
    },
    {
      "children": [
        2
      ],
      "matrix": [
        0.99844455718994141,
        -6.9388939039072284e-18,
        -0.055753305554389954,
        0,
        -0.055723343044519424,
        -0.032778564840555191,
        -0.99790805578231812,
        0,
        -0.0018275133334100246,
        0.99946266412734985,
        -0.032727580517530441,
        0,
        -4.6107220649719238,
        -61.452388763427734,
        -105.79860687255859,
        1
      ],
      "name": "RootNode (model correction matrix)"
    },
    {
      "children": [
        3
      ],
      "name": "Elephant Toy.obj.cleaner.materialmerger.gles"
    },
    {
      "mesh": 0,
      "name": ""
    }
  ],
  "samplers": [
    {
      "magFilter": 9729,
      "minFilter": 9987,
      "wrapS": 10497,
      "wrapT": 10497
    }
  ],
  "scene": 0,
  "scenes": [
    {
      "name": "OSG_Scene",
      "nodes": [
        0
      ]
    }
  ],
  "textures": [
    {
      "sampler": 0,
      "source": 0
    }
  ]
}

